<?xml version="1.0" standalone="no"?>
<!DOCTYPE svg PUBLIC "-//W3C//DTD SVG 20010904//EN"
 "http://www.w3.org/TR/2001/REC-SVG-20010904/DTD/svg10.dtd">
<svg version="1.0" xmlns="http://www.w3.org/2000/svg"
 width="500.000000pt" height="500.000000pt" viewBox="0 0 500.000000 500.000000"
 preserveAspectRatio="xMidYMid meet">
<metadata>
Created by potrace 1.14, written by Peter Selinger 2001-2017
</metadata>
<g transform="translate(0.000000,500.000000) scale(0.100000,-0.100000)"
fill="#000000" stroke="none">
<path d="M2788 3726 c-16 -5 -28 -13 -28 -18 0 -4 -5 -8 -12 -8 -7 0 -48 -18
-93 -39 -44 -22 -118 -57 -165 -79 -47 -22 -132 -62 -190 -89 -58 -27 -125
-59 -150 -71 -25 -11 -108 -50 -185 -87 -77 -37 -171 -82 -210 -100 -38 -18
-119 -56 -180 -85 -60 -29 -152 -72 -204 -96 l-93 -44 6 -37 c6 -34 28 -134
137 -633 16 -74 32 -146 35 -160 6 -29 7 -35 34 -159 11 -52 20 -98 20 -102 0
-4 72 -7 161 -7 l161 -1 -6 82 c-4 45 -9 109 -12 142 -2 33 -6 94 -9 136 -2
41 -6 104 -9 140 -3 35 -8 104 -11 154 -4 49 -7 92 -7 95 -2 25 5 38 23 43 21
6 25 0 33 -43 2 -14 28 -122 56 -240 28 -118 53 -224 56 -235 6 -34 55 -239
60 -258 5 -16 20 -17 167 -15 l162 3 -2 255 c-1 140 -3 353 -3 474 -2 174 1
220 11 227 28 18 32 11 44 -71 4 -25 9 -54 11 -65 5 -27 45 -265 49 -290 1
-11 7 -47 13 -80 11 -59 16 -87 27 -155 3 -19 16 -93 28 -165 l23 -130 174 0
174 0 2 25 c1 14 5 70 8 125 4 55 9 123 11 150 5 57 13 178 20 280 2 39 7 106
11 150 3 44 7 105 9 135 9 158 16 257 21 271 2 9 14 19 24 22 15 4 20 0 21
-16 2 -34 5 -75 13 -172 4 -49 9 -115 11 -145 12 -181 16 -230 20 -275 3 -27
7 -93 10 -145 4 -52 8 -108 10 -125 2 -16 6 -79 10 -140 3 -60 9 -118 11 -127
5 -16 24 -18 231 -15 217 2 226 3 229 22 3 22 11 100 19 190 3 33 8 76 10 95
3 19 7 63 10 96 2 34 6 74 9 90 2 16 7 65 11 109 3 44 8 91 10 105 2 14 6 57
10 95 3 39 7 86 10 105 2 19 6 61 9 93 12 123 18 173 21 197 2 14 7 59 10 100
4 41 8 91 10 110 19 195 19 199 -6 204 -13 3 -109 26 -214 51 -104 26 -201 49
-215 51 -14 3 -69 16 -123 30 -53 14 -107 27 -120 30 -12 2 -62 14 -112 27
-68 17 -97 20 -117 13z"/>
<path d="M2440 1749 c0 -6 8 -29 19 -52 10 -23 34 -85 55 -137 l36 -96 467
-116 c258 -64 469 -116 469 -115 1 1 5 31 8 67 4 36 9 83 11 105 3 22 7 67 10
100 7 91 17 169 21 177 6 10 -17 22 -46 24 -14 1 -90 5 -170 9 -80 3 -167 8
-195 10 -27 2 -111 6 -185 10 -74 3 -169 8 -210 10 -190 12 -290 13 -290 4z"/>
</g>
</svg>
